<?xml version="1.0" encoding="UTF-8"?>
<svg id="Layer_2" data-name="Layer 2" xmlns="http://www.w3.org/2000/svg" version="1.1" viewBox="0 0 456.7 73.2">
  <defs>
    <style>
      .cls-1 {
        fill: #000;
      }

      .cls-1, .cls-2 {
        stroke-width: 0px;
      }

      .cls-2 {
        fill: #fff;
      }
    </style>
  </defs>
  <g id="Layer_1-2" data-name="Layer 1-2">
    <g>
      <path class="cls-2" d="M146.6,36.5c0,11.1-6.4,23.2-23.7,23.2s-23.7-6.9-23.7-23.2,8.5-23.9,25.4-23c18,1,22,14.9,22,23h0ZM114.6,28c-1.6,2.5-2.2,5.4-2.2,8.4,0,6.8,3.4,13,10.6,13s10.5-5.7,10.5-12.5-1.2-8.5-3.6-10.8c-2.7-2.5-5.7-2.5-7.6-2.4-3.7.2-5.9,1.5-7.7,4.2h0Z"/>
      <path class="cls-2" d="M262,18.5c1.3-1.4,2.1-2.4,4.4-3.5,2-.8,4.9-1.5,8-1.5s5.6.4,7.9,1.7c4.6,2.5,5.8,6.4,5.8,13.3v30.2h-12.9v-24.8c0-4,0-5.4-.6-6.6-1-2.4-3.3-3.4-5.8-3.4-6.8,0-6.8,5.5-6.8,11v23.8h-13V14.6h13.1v3.9h0Z"/>
      <path class="cls-2" d="M242.7,47.2c-1.2,2.5-5,12.5-22,12.5s-22.3-8-22.3-22.5,5.2-23.8,22.6-23.8,10.2-.3,15.9,5.8c5.7,6.2,6.1,14.8,6.2,19.8h-31.5c0,5.5,3,11,10.1,11s9.5-4.7,11.1-7.8l9.8,5h0ZM229.8,30.9c-.2-1.9-.6-4.3-2.4-6.2-1.6-1.6-4.1-2.5-6.3-2.5s-5.3,1.5-6.6,2.9c-1.8,1.9-2.2,4-2.6,5.8h18,0Z"/>
      <path class="cls-2" d="M423.5,23.7h8.6v-9.1h-8.5V5.3h-12.9v9.3h-2l-5.9,9.1h8v20.9c0,4.2,0,7.3,1.9,10,2.8,4,7.7,4.3,12.2,4.3s4-.2,6.8-.7v-10.1l-4.6.2c-3.5,0-3.5-2.3-3.4-5v-19.6h0Z"/>
      <path class="cls-2" d="M294.5,5.3h12.9v9.3h13.4l-5.9,9.1h-7.6v19.6c0,2.7,0,5,3.4,5l4.6-.2v10.1c-2.8.4-4.5.7-6.8.7-4.5,0-9.4-.2-12.2-4.3-1.8-2.6-1.9-5.7-1.9-10V5.3h0Z"/>
      <path class="cls-2" d="M444.1,23.7h-1.6v-7.8h-3v-1.4h7.4v1.4h-2.9v7.8h0ZM456.7,23.7h-1.6v-5.6s.1-1.9.1-1.9l-.4,1.5-1.9,6h-1.4l-1.8-6-.5-1.5v1.8c.1,0,.2,5.6.2,5.6h-1.5v-9.1h2.2l2.3,7.2,2.2-7.2h2.2v9.1h0Z"/>
      <path class="cls-2" d="M361.6,47.2l-2.5,3.8c-2.3,3.4-6.7,8.6-19.2,8.6s-21.9-8-21.9-22.5,5.2-23.8,22.6-23.8,10.2-.3,15.9,5.8c5.7,6.2,6.1,14.8,6.2,19.8h-31.5c0,5.5,2.6,11,9.6,11s9.1-4.7,10.7-7.8l9.9,5h0ZM349.4,30.9c-.2-1.9-.6-4.3-2.5-6.2-1.6-1.6-4-2.5-6.3-2.5s-5.3,1.5-6.6,2.9c-1.8,1.9-2.2,4-2.6,5.8h18Z"/>
      <polygon class="cls-2" points="405.9 58.6 389.7 35.4 403.2 14.6 388.4 14.6 382 24.4 375.2 14.6 360.4 14.6 374.9 35.4 360 58.6 374.8 58.6 382.6 46.4 391.1 58.6 405.9 58.6"/>
      <path class="cls-2" d="M164.6,18.5c1.2-1.9,5.2-5,11.6-5,10.8,0,18.4,8.2,18.4,22.9s-3.3,23.3-19,23.3-10-3.1-11.1-5v18.5h-13V14.6h13.1v3.9h0ZM173.3,23.6c-2.4,0-4.8.9-6.7,3.3-1.9,2.3-2.7,5.8-2.7,9.7s1.5,8.3,3.1,10.1c1.5,1.7,3.7,2.7,5.8,2.7,6.3,0,9.1-6.7,9.1-13.1s-1.6-11.2-6.9-12.4c-.6-.2-1.2-.2-1.8-.2h0Z"/>
    </g>
  </g>
  <path class="cls-2" d="M61.1,0H12.1C5.4,0,0,5.4,0,12v49.1c0,6.6,5.4,12,12,12h49.1c6.7,0,12-5.4,12-12V12c0-6.7-5.4-12-12-12h0Z"/>
  <path class="cls-1" d="M51.4,31.2c0-.4.3-.8.8-.8h4c.3,0,.5-.1.7-.4l3.1-4.8c.3-.5,0-1.2-.7-1.2h-7.1c-.4,0-.8-.4-.8-.8v-4.9c0-.4-.3-.8-.8-.8h-7.4c-.4,0-.8.4-.8.8v13.5c-2.6-5-7.8-8.4-13.8-8.4-8.6,0-15.6,7-15.6,15.6s7,15.6,15.6,15.6,11.2-3.4,13.9-8.4c0,2.2.3,3.9,1.3,5.4,1.9,2.8,5.3,3,8.4,3s2.5-.1,4.1-.4c.4,0,.7-.4.7-.8v-5.5c0-.4-.4-.8-.8-.8h-2.4c-2.4,0-2.3-1.5-2.3-3.3v-12.7h0ZM28.7,46.2c-3.9,0-7-3.1-7-7s3.1-7,7-7,7,3.1,7,7-3.1,7-7,7"/>
</svg>