<?xml version="1.0" encoding="UTF-8"?>
<svg id="Layer_2" data-name="Layer 2" xmlns="http://www.w3.org/2000/svg" xmlns:xlink="http://www.w3.org/1999/xlink" viewBox="0 0 456.66 73.16">
  <defs>
    <style>
      .cls-1 {
        fill: url(#linear-gradient);
      }

      .cls-1, .cls-2 {
        stroke-width: 0px;
      }

      .cls-2 {
        fill: #fff;
      }
    </style>
    <linearGradient id="linear-gradient" x1="55.77" y1="60.97" x2="11.74" y2="4.98" gradientUnits="userSpaceOnUse">
      <stop offset="0" stop-color="#00008b"/>
      <stop offset="1" stop-color="#1a6aff"/>
    </linearGradient>
  </defs>
  <g id="Layer_1-2" data-name="Layer 1-2">
    <g>
      <path class="cls-2" d="M146.64,36.45c0,11.15-6.42,23.23-23.65,23.23-12.41,0-23.73-6.93-23.73-23.23,0-13.51,8.53-23.9,25.42-22.97,17.99,1.01,21.96,14.95,21.96,22.97ZM114.55,27.97c-1.6,2.47-2.2,5.44-2.2,8.41,0,6.84,3.38,13.03,10.64,13.03s10.47-5.7,10.47-12.46c0-4.78-1.18-8.49-3.63-10.8-2.7-2.47-5.74-2.55-7.6-2.39-3.72.25-5.91,1.48-7.69,4.2h.01Z"/>
      <path class="cls-2" d="M261.96,18.46c1.27-1.35,2.11-2.36,4.39-3.46,2.03-.84,4.9-1.52,8.02-1.52,2.62,0,5.57.42,7.86,1.69,4.65,2.45,5.83,6.42,5.83,13.26v30.15h-12.92v-24.83c0-3.97-.08-5.41-.59-6.59-1.01-2.36-3.29-3.38-5.83-3.38-6.84,0-6.84,5.49-6.84,10.98v23.82h-13.01V14.58h13.09v3.89h0Z"/>
      <path class="cls-2" d="M242.69,47.19c-1.19,2.51-5.03,12.49-21.96,12.49-13.09,0-22.3-8.01-22.3-22.45,0-10.64,5.24-23.75,22.64-23.75,2.62,0,10.22-.32,15.88,5.76,5.74,6.17,6.08,14.78,6.25,19.76h-31.5c-.08,5.49,3.04,10.98,10.05,10.98s9.54-4.65,11.15-7.77l9.8,4.98h-.01ZM229.77,30.89c-.25-1.86-.59-4.31-2.45-6.25-1.6-1.6-4.05-2.45-6.33-2.45-3.12,0-5.32,1.52-6.59,2.87-1.77,1.94-2.2,3.97-2.62,5.83h17.99Z"/>
      <path class="cls-2" d="M423.55,23.71h8.62v-9.13h-8.53V5.31h-12.92v9.27h-2.05l-5.92,9.14h7.97v20.93c0,4.22.08,7.35,1.86,9.97,2.79,4.05,7.69,4.31,12.16,4.31,2.36,0,4.05-.25,6.84-.68v-10.14l-4.65.17c-3.46,0-3.46-2.28-3.38-4.98v-19.59h0Z"/>
      <path class="cls-2" d="M294.53,5.31h12.92v9.27h13.43l-5.92,9.14h-7.6v19.58c-.08,2.7-.08,4.98,3.38,4.98l4.65-.17v10.14c-2.79.42-4.48.68-6.84.68-4.48,0-9.38-.25-12.16-4.31-1.77-2.62-1.86-5.74-1.86-9.97V5.31h0Z"/>
      <path class="cls-2" d="M444.14,23.71h-1.6v-7.79h-2.95v-1.35h7.43v1.35h-2.89v7.79h.01ZM456.66,23.71h-1.57l.05-5.64.08-1.87-.44,1.54-1.87,5.97h-1.43l-1.84-5.97-.47-1.51.11,1.84.06,5.64h-1.54v-9.13h2.17l2.28,7.21,2.23-7.21h2.17v9.14h.01Z"/>
      <path class="cls-2" d="M361.6,47.23l-2.47,3.82c-2.32,3.4-6.68,8.63-19.16,8.63s-21.89-8.01-21.89-22.45c0-10.64,5.24-23.75,22.64-23.75,2.62,0,10.22-.32,15.88,5.76,5.74,6.17,6.08,14.78,6.25,19.76h-31.5c-.08,5.49,2.63,10.98,9.64,10.98s9.13-4.65,10.74-7.77l9.88,5.02h-.01ZM349.41,30.89c-.25-1.86-.59-4.31-2.45-6.25-1.6-1.6-4.05-2.45-6.33-2.45-3.12,0-5.32,1.52-6.59,2.87-1.77,1.94-2.2,3.97-2.62,5.83h17.99,0Z"/>
      <polygon class="cls-2" points="405.88 58.59 389.72 35.42 403.19 14.58 388.4 14.58 382.04 24.42 375.18 14.58 360.39 14.58 374.93 35.42 359.96 58.59 374.75 58.59 382.61 46.43 391.09 58.59 405.88 58.59"/>
      <path class="cls-2" d="M164.55,18.46c1.24-1.89,5.23-4.98,11.57-4.98,10.81,0,18.42,8.19,18.42,22.89,0,9.04-3.29,23.31-18.96,23.31-5.63,0-10-3.13-11.11-4.98v18.46h-13.01V14.58h13.09v3.89h0ZM173.33,23.63c-2.36,0-4.81.94-6.67,3.3-1.86,2.28-2.7,5.82-2.7,9.67,0,5.19,1.52,8.33,3.12,10.14,1.5,1.69,3.72,2.66,5.83,2.66,6.33,0,9.12-6.67,9.12-13.12,0-5.42-1.6-11.16-6.93-12.42-.59-.16-1.18-.24-1.77-.24h0Z"/>
    </g>
  </g>
  <path class="cls-1" d="M61.13,0H12.05C5.4,0,.01,5.39.01,12.04v49.09c0,6.65,5.39,12.04,12.04,12.04h49.09c6.65,0,12.04-5.39,12.04-12.04V12.04c0-6.65-5.39-12.04-12.04-12.04Z"/>
  <path class="cls-2" d="M51.39,31.2c0-.42.35-.77.77-.77h4.05c.26,0,.5-.13.65-.35l3.08-4.76c.34-.51-.03-1.19-.65-1.19h-7.07c-.43,0-.77-.35-.77-.77v-4.85c0-.43-.35-.78-.77-.78h-7.38c-.43,0-.77.35-.77.77v13.5c-2.6-4.99-7.82-8.41-13.83-8.41-8.61,0-15.59,6.98-15.59,15.59s6.98,15.59,15.59,15.59c6.03,0,11.25-3.42,13.85-8.43.04,2.2.26,3.93,1.27,5.42,1.92,2.8,5.3,2.97,8.39,2.97,1.44,0,2.51-.13,4.06-.37.38-.06.66-.39.66-.77v-5.53c0-.44-.36-.79-.8-.77l-2.4.09c-2.39,0-2.33-1.57-2.33-3.44v-12.74ZM28.7,46.18c-3.86,0-7-3.13-7-7s3.13-7,7-7,7,3.13,7,7-3.13,7-7,7"/>
</svg>