<?xml version="1.0" encoding="UTF-8"?>
<svg id="Layer_2" data-name="Layer 2" xmlns="http://www.w3.org/2000/svg" xmlns:xlink="http://www.w3.org/1999/xlink" viewBox="0 0 456.65 111.65">
  <defs>
    <style>
      .cls-1 {
        fill: url(#linear-gradient);
      }

      .cls-1, .cls-2 {
        stroke-width: 0px;
      }

      .cls-2 {
        fill: #fff;
      }
    </style>
    <linearGradient id="linear-gradient" x1="55.76" y1="60.97" x2="11.72" y2="4.98" gradientUnits="userSpaceOnUse">
      <stop offset="0" stop-color="#00008b"/>
      <stop offset="1" stop-color="#1a6aff"/>
    </linearGradient>
  </defs>
  <g id="Layer_1-2" data-name="Layer 1-2">
    <g>
      <path class="cls-2" d="M146.63,36.45c0,11.15-6.42,23.23-23.65,23.23-12.41,0-23.73-6.93-23.73-23.23,0-13.51,8.53-23.9,25.42-22.97,17.99,1.01,21.96,14.95,21.96,22.97ZM114.54,27.97c-1.6,2.47-2.2,5.44-2.2,8.41,0,6.84,3.38,13.03,10.64,13.03s10.47-5.7,10.47-12.46c0-4.78-1.18-8.49-3.63-10.8-2.7-2.47-5.74-2.55-7.6-2.39-3.72.25-5.91,1.48-7.69,4.2h.01Z"/>
      <path class="cls-2" d="M261.95,18.46c1.27-1.35,2.11-2.36,4.39-3.46,2.03-.84,4.9-1.52,8.02-1.52,2.62,0,5.57.42,7.86,1.69,4.65,2.45,5.83,6.42,5.83,13.26v30.15h-12.92v-24.83c0-3.97-.08-5.41-.59-6.59-1.01-2.36-3.29-3.38-5.83-3.38-6.84,0-6.84,5.49-6.84,10.98v23.82h-13.01V14.58h13.09v3.89h0Z"/>
      <path class="cls-2" d="M242.68,47.19c-1.19,2.51-5.03,12.49-21.96,12.49-13.09,0-22.3-8.01-22.3-22.45,0-10.64,5.24-23.75,22.64-23.75,2.62,0,10.22-.32,15.88,5.76,5.74,6.17,6.08,14.78,6.25,19.76h-31.5c-.08,5.49,3.04,10.98,10.05,10.98s9.54-4.65,11.15-7.77l9.8,4.98h-.01ZM229.76,30.89c-.25-1.86-.59-4.31-2.45-6.25-1.6-1.6-4.05-2.45-6.33-2.45-3.12,0-5.32,1.52-6.59,2.87-1.77,1.94-2.2,3.97-2.62,5.83h17.99Z"/>
      <path class="cls-2" d="M423.54,23.71h8.62v-9.13h-8.53V5.31h-12.92v9.27h-2.05l-5.92,9.14h7.97v20.93c0,4.22.08,7.35,1.86,9.97,2.79,4.05,7.69,4.31,12.16,4.31,2.36,0,4.05-.25,6.84-.68v-10.14l-4.65.17c-3.46,0-3.46-2.28-3.38-4.98v-19.59h0Z"/>
      <path class="cls-2" d="M294.52,5.31h12.92v9.27h13.43l-5.92,9.14h-7.6v19.58c-.08,2.7-.08,4.98,3.38,4.98l4.65-.17v10.14c-2.79.42-4.48.68-6.84.68-4.48,0-9.38-.25-12.16-4.31-1.77-2.62-1.86-5.74-1.86-9.97V5.31h0Z"/>
      <path class="cls-2" d="M444.13,23.71h-1.6v-7.79h-2.95v-1.35h7.43v1.35h-2.89v7.79h.01ZM456.65,23.71h-1.57l.05-5.64.08-1.87-.44,1.54-1.87,5.97h-1.43l-1.84-5.97-.47-1.51.11,1.84.06,5.64h-1.54v-9.13h2.17l2.28,7.21,2.23-7.21h2.17v9.14h.01Z"/>
      <path class="cls-2" d="M361.59,47.23l-2.47,3.82c-2.32,3.4-6.68,8.63-19.16,8.63s-21.89-8.01-21.89-22.45c0-10.64,5.24-23.75,22.64-23.75,2.62,0,10.22-.32,15.88,5.76,5.74,6.17,6.08,14.78,6.25,19.76h-31.5c-.08,5.49,2.63,10.98,9.64,10.98s9.13-4.65,10.74-7.77l9.88,5.02h-.01ZM349.4,30.89c-.25-1.86-.59-4.31-2.45-6.25-1.6-1.6-4.05-2.45-6.33-2.45-3.12,0-5.32,1.52-6.59,2.87-1.77,1.94-2.2,3.97-2.62,5.83h17.99,0Z"/>
      <polygon class="cls-2" points="405.87 58.59 389.71 35.42 403.18 14.58 388.39 14.58 382.03 24.42 375.17 14.58 360.38 14.58 374.92 35.42 359.95 58.59 374.74 58.59 382.6 46.43 391.08 58.59 405.87 58.59"/>
      <path class="cls-2" d="M164.54,18.46c1.24-1.89,5.23-4.98,11.57-4.98,10.81,0,18.42,8.19,18.42,22.89,0,9.04-3.29,23.31-18.96,23.31-5.63,0-10-3.13-11.11-4.98v18.46h-13.01V14.58h13.09v3.89h0ZM173.32,23.63c-2.36,0-4.81.94-6.67,3.3-1.86,2.28-2.7,5.82-2.7,9.67,0,5.19,1.52,8.33,3.12,10.14,1.5,1.69,3.72,2.66,5.83,2.66,6.33,0,9.12-6.67,9.12-13.12,0-5.42-1.6-11.16-6.93-12.42-.59-.16-1.18-.24-1.77-.24h0Z"/>
    </g>
  </g>
  <path class="cls-1" d="M61.12,0H12.04C5.39,0,0,5.39,0,12.04v49.09c0,6.65,5.39,12.04,12.04,12.04h49.09c6.65,0,12.04-5.39,12.04-12.04V12.04c0-6.65-5.39-12.04-12.04-12.04Z"/>
  <path class="cls-2" d="M51.38,31.2c0-.42.35-.77.77-.77h4.05c.26,0,.5-.13.65-.35l3.08-4.76c.34-.51-.03-1.19-.65-1.19h-7.07c-.43,0-.77-.35-.77-.77v-4.85c0-.43-.35-.78-.77-.78h-7.38c-.43,0-.77.35-.77.77v13.5c-2.6-4.99-7.82-8.41-13.83-8.41-8.61,0-15.59,6.98-15.59,15.59s6.98,15.59,15.59,15.59c6.03,0,11.25-3.42,13.85-8.43.04,2.2.26,3.93,1.27,5.42,1.92,2.8,5.3,2.97,8.39,2.97,1.44,0,2.51-.13,4.06-.37.38-.06.66-.39.66-.77v-5.53c0-.44-.36-.79-.8-.77l-2.4.09c-2.39,0-2.33-1.57-2.33-3.44v-12.74ZM28.68,46.18c-3.86,0-7-3.13-7-7s3.13-7,7-7,7,3.13,7,7-3.13,7-7,7"/>
  <g>
    <rect class="cls-2" x="151.45" y="87" width="2.3" height="19.01"/>
    <path class="cls-2" d="M167.07,92.16c-.72-.4-1.57-.59-2.53-.59-1.08,0-1.96.22-2.64.67-.68.44-1.19,1.02-1.52,1.74h-.19v-2.23h-2.12v14.26h2.19v-8.58c0-.83.16-1.54.47-2.12.32-.58.75-1.02,1.29-1.33.55-.3,1.18-.46,1.87-.46,1.01,0,1.81.32,2.39.95.58.62.87,1.5.87,2.62v8.91h2.19v-9.06c0-1.21-.2-2.22-.6-3.01-.4-.8-.97-1.39-1.69-1.78Z"/>
    <path class="cls-2" d="M178.34,86.11c-.68,0-1.33.14-1.94.41-.61.27-1.11.68-1.49,1.23-.38.54-.58,1.23-.58,2.04v1.97h-2.3v1.86h2.3v12.4h2.19v-12.4h3.19v-1.86h-3.19v-1.45c0-.71.16-1.24.47-1.61.32-.37.84-.55,1.57-.55.32,0,.57.03.76.08.2.06.35.1.46.14l.63-1.89c-.17-.07-.42-.15-.76-.24-.34-.09-.78-.13-1.32-.13Z"/>
    <path class="cls-2" d="M191.36,92.48c-.97-.61-2.09-.92-3.38-.92s-2.42.31-3.39.92c-.97.61-1.72,1.47-2.27,2.58-.54,1.11-.81,2.4-.81,3.89s.27,2.76.81,3.86c.55,1.1,1.3,1.96,2.27,2.57.97.61,2.1.92,3.39.92s2.41-.31,3.38-.92c.97-.61,1.73-1.47,2.26-2.57.54-1.1.82-2.39.82-3.86s-.27-2.78-.82-3.89c-.54-1.11-1.29-1.97-2.26-2.58ZM191.8,101.61c-.3.82-.77,1.48-1.4,1.98-.63.5-1.43.75-2.41.75s-1.78-.25-2.41-.75c-.63-.5-1.1-1.16-1.4-1.98-.3-.82-.46-1.7-.46-2.65s.15-1.84.46-2.66c.3-.82.77-1.49,1.4-2,.63-.51,1.44-.76,2.41-.76s1.78.25,2.41.76c.63.51,1.1,1.17,1.4,2,.3.82.45,1.71.45,2.66s-.15,1.84-.45,2.65Z"/>
    <path class="cls-2" d="M203.77,91.53c-.85,0-1.62.22-2.3.66-.68.44-1.15,1.01-1.41,1.72h-.15v-2.15h-2.12v14.26h2.19v-9.02c0-.64.15-1.22.46-1.72.32-.51.74-.9,1.28-1.19.54-.29,1.16-.44,1.86-.44.29,0,.57.02.83.07.27.04.44.06.51.08v-2.23c-.12-.01-.31-.02-.55-.03-.24,0-.44,0-.6,0Z"/>
    <path class="cls-2" d="M221.88,91.56c-1.02,0-1.9.22-2.63.66-.73.43-1.28,1.02-1.64,1.75h-.15c-.35-.76-.84-1.35-1.48-1.77-.62-.43-1.41-.64-2.35-.64s-1.72.21-2.39.64c-.66.42-1.14,1.01-1.44,1.77h-.19v-2.23h-2.12v14.26h2.19v-8.91c0-.7.15-1.31.45-1.85.3-.54.7-.96,1.19-1.26.5-.3,1.03-.46,1.6-.46.83,0,1.51.25,2.03.75.53.5.79,1.15.79,1.96v9.76h2.23v-9.28c0-.92.28-1.68.83-2.28.55-.61,1.33-.91,2.33-.91.78,0,1.46.23,2.03.68.58.45.86,1.2.86,2.26v9.54h2.19v-9.54c0-1.68-.41-2.91-1.22-3.7-.81-.8-1.85-1.2-3.13-1.2Z"/>
    <path class="cls-2" d="M239,92.39c-.56-.33-1.14-.55-1.74-.66-.59-.11-1.12-.17-1.58-.17-.72,0-1.45.1-2.19.3-.74.19-1.42.53-2.04,1.02-.62.48-1.11,1.16-1.49,2.02l2.08.74c.24-.52.66-1.01,1.25-1.47.59-.46,1.41-.69,2.46-.69s1.76.25,2.26.76c.5.51.75,1.22.75,2.14v.07c0,.35-.13.6-.38.74-.25.14-.64.24-1.19.31-.54.06-1.24.14-2.11.25-.66.09-1.32.2-1.98.35-.65.14-1.24.36-1.78.65-.54.29-.97.69-1.29,1.21-.32.51-.48,1.17-.48,1.99,0,.93.22,1.72.65,2.38.43.65,1.02,1.15,1.75,1.5.74.34,1.56.51,2.46.51.83,0,1.53-.12,2.11-.37s1.04-.55,1.38-.9c.35-.35.59-.68.74-.99h.11v1.93h2.19v-9.39c0-1.13-.19-2.04-.56-2.71s-.84-1.18-1.4-1.51ZM238.77,100.85c0,.59-.15,1.16-.46,1.7-.3.54-.75.98-1.35,1.32-.59.34-1.32.51-2.19.51s-1.59-.19-2.16-.58c-.56-.39-.84-.97-.84-1.73,0-.56.15-1,.45-1.32.3-.33.7-.57,1.19-.73.5-.17,1.03-.29,1.6-.36.24-.03.54-.07.92-.11.38-.05.78-.1,1.18-.17.41-.07.77-.15,1.08-.23.32-.09.52-.19.61-.31v2Z"/>
    <path class="cls-2" d="M250.6,104.04c-.15.02-.35.04-.59.04-.32,0-.63-.05-.92-.15-.28-.11-.52-.31-.7-.61-.18-.31-.27-.77-.27-1.39v-8.32h3.04v-1.86h-3.04v-3.42h-2.19v3.42h-2.15v1.86h2.15v8.91c0,.83.19,1.52.58,2.06.39.54.88.95,1.47,1.22.59.27,1.2.4,1.82.4.41,0,.75-.03,1.01-.09.27-.06.47-.11.62-.17l-.45-1.97c-.09.02-.22.04-.37.07Z"/>
    <path class="cls-2" d="M255.57,86.4c-.43,0-.79.15-1.1.44-.3.29-.46.64-.46,1.05s.15.76.46,1.05c.31.29.68.44,1.1.44s.79-.15,1.1-.44c.31-.29.46-.64.46-1.05s-.15-.76-.46-1.05c-.3-.29-.67-.44-1.1-.44Z"/>
    <rect class="cls-2" x="254.46" y="91.75" width="2.19" height="14.26"/>
    <path class="cls-2" d="M269.83,92.48c-.97-.61-2.09-.92-3.38-.92s-2.42.31-3.39.92c-.97.61-1.72,1.47-2.27,2.58-.54,1.11-.81,2.4-.81,3.89s.27,2.76.81,3.86c.54,1.1,1.3,1.96,2.27,2.57.97.61,2.1.92,3.39.92s2.41-.31,3.38-.92c.97-.61,1.73-1.47,2.27-2.57.54-1.1.82-2.39.82-3.86s-.27-2.78-.82-3.89c-.54-1.11-1.29-1.97-2.27-2.58ZM270.26,101.61c-.3.82-.77,1.48-1.4,1.98-.63.5-1.44.75-2.41.75s-1.78-.25-2.41-.75c-.63-.5-1.1-1.16-1.4-1.98-.3-.82-.46-1.7-.46-2.65s.15-1.84.46-2.66c.3-.82.77-1.49,1.4-2s1.44-.76,2.41-.76,1.78.25,2.41.76c.63.51,1.1,1.17,1.4,2,.3.82.46,1.71.46,2.66s-.15,1.84-.46,2.65Z"/>
    <path class="cls-2" d="M285.25,92.16c-.72-.4-1.57-.59-2.53-.59-1.08,0-1.96.22-2.64.67-.68.44-1.19,1.02-1.52,1.74h-.19v-2.23h-2.12v14.26h2.19v-8.58c0-.83.16-1.54.47-2.12.32-.58.75-1.02,1.29-1.33.55-.3,1.18-.46,1.87-.46,1.02,0,1.81.32,2.4.95.58.62.87,1.5.87,2.62v8.91h2.19v-9.06c0-1.21-.2-2.22-.6-3.01-.4-.8-.97-1.39-1.69-1.78Z"/>
    <path class="cls-2" d="M304.87,91.53c-.85,0-1.62.22-2.3.66-.68.44-1.15,1.01-1.41,1.72h-.15v-2.15h-2.12v14.26h2.19v-9.02c0-.64.15-1.22.46-1.72.32-.51.74-.9,1.28-1.19.54-.29,1.16-.44,1.86-.44.29,0,.57.02.83.07.27.04.44.06.51.08v-2.23c-.12-.01-.31-.02-.55-.03-.24,0-.44,0-.6,0Z"/>
    <path class="cls-2" d="M318.12,93.14c-.59-.56-1.25-.96-1.98-1.21-.72-.25-1.46-.37-2.2-.37-1.29,0-2.41.32-3.38.95-.96.62-1.71,1.5-2.25,2.62-.53,1.11-.8,2.4-.8,3.86s.27,2.74.8,3.84c.54,1.1,1.3,1.95,2.29,2.56,1,.61,2.18.91,3.55.91.97,0,1.83-.15,2.61-.45.77-.3,1.42-.72,1.95-1.26.53-.54.9-1.18,1.12-1.89l-2.12-.59c-.19.49-.45.91-.79,1.24-.34.33-.75.58-1.22.74-.46.16-.98.24-1.56.24-.89,0-1.66-.19-2.33-.58-.67-.39-1.19-.96-1.57-1.7-.34-.68-.51-1.5-.54-2.44h10.35v-.93c0-1.33-.18-2.45-.53-3.36-.35-.91-.83-1.64-1.42-2.19ZM309.73,97.73c.04-.66.2-1.29.49-1.87.34-.69.83-1.24,1.46-1.67.64-.43,1.39-.65,2.26-.65.79,0,1.48.18,2.06.55.59.37,1.04.86,1.35,1.49.32.63.48,1.35.48,2.15h-8.11Z"/>
    <path class="cls-2" d="M324.51,86.4c-.43,0-.8.15-1.1.44-.3.29-.46.64-.46,1.05s.15.76.46,1.05c.31.29.68.44,1.1.44s.79-.15,1.1-.44c.31-.29.46-.64.46-1.05s-.15-.76-.46-1.05c-.3-.29-.67-.44-1.1-.44Z"/>
    <rect class="cls-2" x="323.4" y="91.75" width="2.19" height="14.26"/>
    <path class="cls-2" d="M343.97,91.56c-1.02,0-1.9.22-2.63.66-.73.43-1.28,1.02-1.64,1.75h-.15c-.35-.76-.84-1.35-1.48-1.77-.62-.43-1.41-.64-2.35-.64s-1.72.21-2.39.64c-.66.42-1.14,1.01-1.44,1.77h-.19v-2.23h-2.12v14.26h2.19v-8.91c0-.7.15-1.31.45-1.85.3-.54.7-.96,1.19-1.26.5-.3,1.03-.46,1.6-.46.83,0,1.51.25,2.03.75.53.5.79,1.15.79,1.96v9.76h2.23v-9.28c0-.92.28-1.68.83-2.28.55-.61,1.33-.91,2.33-.91.78,0,1.46.23,2.03.68s.86,1.2.86,2.26v9.54h2.19v-9.54c0-1.68-.41-2.91-1.22-3.7-.81-.8-1.85-1.2-3.13-1.2Z"/>
    <path class="cls-2" d="M361.09,92.39c-.56-.33-1.14-.55-1.74-.66-.59-.11-1.12-.17-1.58-.17-.72,0-1.45.1-2.19.3-.74.19-1.42.53-2.04,1.02-.62.48-1.11,1.16-1.48,2.02l2.08.74c.24-.52.66-1.01,1.25-1.47.59-.46,1.41-.69,2.46-.69s1.76.25,2.26.76c.5.51.75,1.22.75,2.14v.07c0,.35-.13.6-.38.74-.25.14-.64.24-1.19.31-.54.06-1.24.14-2.11.25-.66.09-1.32.2-1.98.35-.65.14-1.24.36-1.78.65-.54.29-.97.69-1.29,1.21-.32.51-.48,1.17-.48,1.99,0,.93.22,1.72.65,2.38.43.65,1.02,1.15,1.75,1.5.74.34,1.56.51,2.46.51.83,0,1.53-.12,2.11-.37s1.04-.55,1.38-.9c.35-.35.59-.68.74-.99h.11v1.93h2.19v-9.39c0-1.13-.19-2.04-.56-2.71-.37-.67-.84-1.18-1.4-1.51ZM360.86,100.85c0,.59-.15,1.16-.46,1.7-.3.54-.75.98-1.35,1.32-.59.34-1.32.51-2.19.51s-1.59-.19-2.16-.58c-.56-.39-.84-.97-.84-1.73,0-.56.15-1,.45-1.32.3-.33.7-.57,1.19-.73.5-.17,1.03-.29,1.6-.36.24-.03.54-.07.92-.11.38-.05.78-.1,1.18-.17.41-.07.77-.15,1.08-.23.32-.09.52-.19.61-.31v2Z"/>
    <path class="cls-2" d="M376.85,94.01h-.22c-.16-.25-.39-.56-.69-.95-.29-.39-.71-.74-1.26-1.04-.54-.31-1.28-.46-2.21-.46-1.2,0-2.26.3-3.17.9-.92.59-1.63,1.44-2.14,2.52-.51,1.08-.77,2.35-.77,3.81s.26,2.75.79,3.79c.53,1.04,1.25,1.83,2.16,2.38.92.54,1.95.82,3.1.82.93,0,1.66-.15,2.21-.44.55-.3.97-.63,1.26-1.01.3-.38.53-.7.69-.97h.19v2.9c0,1.19-.38,2.06-1.12,2.62-.75.56-1.7.83-2.85.83-.86,0-1.56-.13-2.09-.38-.53-.25-.94-.54-1.24-.88-.3-.33-.55-.63-.75-.89l-1.75,1.23c.3.49.7.96,1.2,1.39.51.44,1.14.79,1.9,1.06.76.27,1.67.41,2.73.41,1.14,0,2.17-.18,3.1-.55.94-.36,1.68-.93,2.23-1.7.56-.77.83-1.76.83-2.99v-14.67h-2.12v2.26ZM376.34,101.48c-.32.75-.78,1.33-1.38,1.74-.61.4-1.35.6-2.23.6s-1.68-.21-2.3-.64c-.61-.43-1.08-1.03-1.39-1.78-.31-.76-.46-1.64-.46-2.63s.15-1.84.45-2.64c.31-.79.77-1.42,1.38-1.89.62-.47,1.39-.71,2.32-.71s1.64.22,2.25.67c.61.45,1.06,1.06,1.37,1.85.31.79.46,1.69.46,2.72s-.16,1.95-.47,2.71Z"/>
    <path class="cls-2" d="M384.09,86.4c-.43,0-.8.15-1.1.44-.3.29-.46.64-.46,1.05s.15.76.46,1.05c.31.29.68.44,1.1.44s.79-.15,1.1-.44c.31-.29.46-.64.46-1.05s-.15-.76-.46-1.05c-.3-.29-.67-.44-1.1-.44Z"/>
    <rect class="cls-2" x="382.97" y="91.75" width="2.19" height="14.26"/>
    <path class="cls-2" d="M398.17,92.16c-.72-.4-1.57-.59-2.53-.59-1.08,0-1.95.22-2.64.67-.68.44-1.19,1.02-1.52,1.74h-.19v-2.23h-2.12v14.26h2.19v-8.58c0-.83.16-1.54.47-2.12.32-.58.75-1.02,1.29-1.33.55-.3,1.18-.46,1.87-.46,1.02,0,1.81.32,2.39.95.58.62.87,1.5.87,2.62v8.91h2.19v-9.06c0-1.21-.2-2.22-.6-3.01-.4-.8-.97-1.39-1.69-1.78Z"/>
    <path class="cls-2" d="M414.4,93.14c-.59-.56-1.25-.96-1.98-1.21-.72-.25-1.46-.37-2.2-.37-1.29,0-2.41.32-3.38.95-.96.62-1.71,1.5-2.25,2.62-.53,1.11-.8,2.4-.8,3.86s.27,2.74.8,3.84c.54,1.1,1.3,1.95,2.29,2.56,1,.61,2.18.91,3.56.91.97,0,1.83-.15,2.61-.45.77-.3,1.42-.72,1.95-1.26.53-.54.9-1.18,1.12-1.89l-2.12-.59c-.18.49-.45.91-.79,1.24-.34.33-.75.58-1.22.74-.46.16-.98.24-1.56.24-.88,0-1.66-.19-2.33-.58-.67-.39-1.19-.96-1.57-1.7-.34-.68-.51-1.5-.54-2.44h10.34v-.93c0-1.33-.18-2.45-.53-3.36-.35-.91-.83-1.64-1.42-2.19ZM406.01,97.73c.04-.66.2-1.29.49-1.87.34-.69.83-1.24,1.46-1.67.64-.43,1.39-.65,2.26-.65.79,0,1.48.18,2.06.55.59.37,1.04.86,1.36,1.49.32.63.48,1.35.48,2.15h-8.11Z"/>
    <path class="cls-2" d="M429.41,87v7.02h-.19c-.16-.25-.39-.56-.68-.95-.28-.39-.7-.74-1.24-1.04-.54-.31-1.27-.46-2.2-.46-1.2,0-2.26.3-3.17.9-.92.6-1.63,1.45-2.14,2.55-.51,1.1-.77,2.4-.77,3.9s.26,2.82.77,3.93c.51,1.1,1.23,1.96,2.14,2.56.91.6,1.96.9,3.15.9.92,0,1.65-.15,2.2-.46.55-.31.98-.66,1.27-1.05.3-.4.53-.72.69-.98h.26v2.19h2.12v-19.01h-2.19ZM428.97,101.73c-.32.82-.78,1.46-1.38,1.92-.61.46-1.35.69-2.23.69s-1.68-.24-2.3-.72c-.61-.49-1.08-1.14-1.39-1.97-.31-.83-.46-1.75-.46-2.77s.15-1.91.46-2.71c.31-.81.77-1.45,1.38-1.92.62-.48,1.39-.71,2.32-.71s1.64.23,2.25.68c.61.45,1.06,1.07,1.37,1.88.31.8.46,1.73.46,2.79s-.16,2.03-.47,2.85Z"/>
  </g>
</svg>